<mxfile host="app.diagrams.net" modified="2024-01-18T10:08:19.946Z" agent="Mozilla/5.0 (Macintosh; Intel Mac OS X 10_15_7) AppleWebKit/605.1.15 (KHTML, like Gecko) Version/17.0 Safari/605.1.15" etag="KuF5oGWVU6HaiFSlO8kK" version="22.1.21" type="github">
  <diagram name="페이지-1" id="-X32wLAPWnnn3E49otwI">
    <mxGraphModel dx="5112" dy="2770" grid="0" gridSize="10" guides="1" tooltips="1" connect="1" arrows="1" fold="1" page="1" pageScale="1" pageWidth="827" pageHeight="1169" math="0" shadow="0">
      <root>
        <mxCell id="0" />
        <mxCell id="1" parent="0" />
        <mxCell id="bTx97Rhf-hIdxPFHmtMt-1" value="" style="endArrow=none;html=1;rounded=0;" edge="1" parent="1">
          <mxGeometry width="50" height="50" relative="1" as="geometry">
            <mxPoint x="-304.5" y="1971.3600000000001" as="sourcePoint" />
            <mxPoint x="-298.1352588646579" y="559.6800000000001" as="targetPoint" />
          </mxGeometry>
        </mxCell>
        <mxCell id="bTx97Rhf-hIdxPFHmtMt-2" value="&lt;span style=&quot;font-size: 36px;&quot;&gt;EC2&lt;/span&gt;" style="rounded=0;whiteSpace=wrap;html=1;fillColor=none;strokeColor=none;" vertex="1" parent="1">
          <mxGeometry x="-358" y="488" width="120" height="60" as="geometry" />
        </mxCell>
        <mxCell id="bTx97Rhf-hIdxPFHmtMt-3" value="&lt;span style=&quot;font-size: 36px;&quot;&gt;GooglePlace API&lt;/span&gt;" style="rounded=0;whiteSpace=wrap;html=1;fillColor=none;strokeColor=none;" vertex="1" parent="1">
          <mxGeometry x="585.5" y="499.68" width="303" height="60" as="geometry" />
        </mxCell>
        <mxCell id="bTx97Rhf-hIdxPFHmtMt-4" value="" style="endArrow=none;html=1;rounded=0;" edge="1" parent="1">
          <mxGeometry width="50" height="50" relative="1" as="geometry">
            <mxPoint x="736.5" y="1961.68" as="sourcePoint" />
            <mxPoint x="736.4805834092981" y="558.97" as="targetPoint" />
          </mxGeometry>
        </mxCell>
        <mxCell id="bTx97Rhf-hIdxPFHmtMt-5" value="&lt;span style=&quot;font-size: 24px;&quot;&gt;&lt;b&gt;1.&amp;nbsp;카페 이름 요청&lt;/b&gt;&lt;/span&gt;" style="rounded=0;whiteSpace=wrap;html=1;fillColor=none;strokeColor=none;" vertex="1" parent="1">
          <mxGeometry x="-227" y="556.6800000000001" width="345" height="53" as="geometry" />
        </mxCell>
        <mxCell id="bTx97Rhf-hIdxPFHmtMt-6" value="" style="endArrow=classic;html=1;rounded=0;" edge="1" parent="1">
          <mxGeometry width="50" height="50" relative="1" as="geometry">
            <mxPoint x="-297.79999999999995" y="609.1800000000001" as="sourcePoint" />
            <mxPoint x="217" y="609.1800000000001" as="targetPoint" />
          </mxGeometry>
        </mxCell>
        <mxCell id="bTx97Rhf-hIdxPFHmtMt-7" value="" style="shape=image;html=1;verticalLabelPosition=bottom;verticalAlign=top;imageAspect=1;aspect=fixed;image=data:image/png,iVBORw0KGgoAAAANSUhEUgAAASwAAAEsCAYAAAB5fY51AAAACXBIWXMAAAsTAAALEwEAmpwYAAAer0lEQVR4nO3dX2xb130H8K9XwyIgmgzsxGRAjypsSg0FSKEKyOxgKQ0aaZARNwUkBV2rAZHbYkON2NnDMCdwHvpgt3GfGttI1qFpmKFuF1jWQ5ogAkQEQSWjk1RA/wBL0B8DJsyW1NIslCjA9FJ0D+SlKIbkOSLvJXnu/X6AIohNyzfV1fee+zu/c86+r//Y91cQESngb2p9AUREshhYRKQMBhYRKYOBRUTKYGARkTIYWESkDAYWESmDgUVEymBgEZEyGFhEpAwGFhEpg4FFRMpgYBGRMhhYRKQMBhYRKYOBRUTKYGARkTIYWESkDAYWESmDgUVEymBgEZEyGFhEpAwGFhEpg4FFRMpgYBGRMhhYRKQMBhYRKYOBRUTKYGARkTIYWESkDAYWESmDgUVEymBgEZEyGFhEpAwGFhEpg4FFRMpgYBGRMhhYRKQMBhYRKYOBRUTKYGARkTIYWESkDAYWESmDgUVEymBgEZEyGFhEpAwGFhEpg4FFRMrYX+sLIDXZbQ74jvgBAMnUJtbiSzW+IrICBpaFBLxBAJmwcfmzv96R+XWN2+mBy+nR/e+fj0zv+vfV+BKSqU0AQPLBTujFEvcRS0R1//tJffu+/mPfX2t9EVQ5LYwCTel/aiFkVPhUixZyWritxZfS4baR/idZCwNLIQFvMDs6anb5YW9w4EnviVpfVk3NR6aRTG1iNb6EtfgSYon7fD01MQZWHXI7PfC5WuFz+dHhDSo/SqqF9Y1lxBL3s0G2Fr/D10wTYGDVWH44WX3EZLT5yHQ6xDbuZIKMozGVMLCqzOfyI+ANZgOKI6fa2k5tYS2+hNnIFObuTbE2VucYWAaz2xzoaulBwBtkQClifWMZs/emMBeZwuTKeK0vh3IwsAzgc/nR1dKL7pZeHD/yRK0vhyo0H5nGxMo4JlfGWQerMQaWTnwuP/raBtDd0lP3o6h4IrrrB282MrXr97XWgWKK9Un5MjOXpbgf8cDtPLrr15pz/pzd5qjrkI8nophYCWNs8RbrXzXAwKpAPYbU+sYykg82s31LscR9xD6LKtmN7nbuhJvWX6aFm8/lR2PDwVpeXja8Rmbe5sirShhYe6TVpJ7vPFOzkYA2QpqNTGU7xK3aHa6N6gJN6faPx51HazLTur6xjJszb2NyJcyivYEYWJJ8Lj8GO4fR3dJb1Se7Ng2vNUTO5b2+UWG57SLNLj98R/xVGQVvp7bw4cIoR10GYWAJdLX04vnO4ao8tdc3lrEav5MNJtVe4eqdFmIBbxDNLr/h39OxxVGMLYzyIaMjBlYRfe39ONN13tCncu70+Vzm9Y6qK+ANItAUNHRGdz4yjbcnrjK4dMDAymNkUDGg6ltuz5wRr/63V8O4Nn6Jr4oVYGBldLX04lzPRV2Daju1hbnIFCZWxjF3b4o3qmIC3mCmn07fWeDQ5DWMzIT4wCqD5QPL7fTgldM/1a2eoU11s0vaXALeIPra+3UbecUTUVwLX+Y9skeWDqzh7vMY7jpX8dfZTm1hYmUcIzMhFsotoK+9H6faBnR5yN1eDeMn71/gaEuSJQPLbnPg8sCbFd9wt1fD+HBhlE9Ji3I7PRjsPINT7f0Vjbq2U1u4OPJDFuUlWC6wfC4/Xh+6UfYNtp3aws2ZEMYWbrEmRQB2ivWVTtZcD1/GyExIvwszIUsFVl97P15+9kpZfzaeiOLtyavsZKaSKp1lHlscxWvvX9D5qszDMoFVblhpQTW2MGrAVZFZVRJcDK3ivvTlZw79qNYXYbSAN4hLA2/u6c9sp7bw6//+D7z2wQXcic4ZdGVkVmvxJYzMhBDbjKLZ1Qq7rfQuFrl8Lj/sNiem7/7OwCtUk+kDy+304PV/vIED+xuk/8zt1TAujvwQkythPPw8ZeDVkdlpwYV9+9DsapW+D1s9AaxtLCPy57vGXqBiTP9K+PrQDenZwO3UFn7y/gXO+pEh7DYHXjl9BSebe6Q+v53awrffeJo10xymHmH1tfdjsHNY6rPzkWn88D+fZx8VGebh5yl8dOcDrG0sI3j8KeFo68D+BhyyP4bJlXCVrrD+/U2tL8BIZ7rOS30uNHkNL90Y4pOMqmJyZRzff+ubWN9YFn62r60f7jrZHLIemDawApIHPrz2wQWEJq5W4YqIdsQSUbx0Y0gqtLpaeqtwRWowbWDJfJOvhy+zXYFqJvlgEy/dGMJ2aqvk5061D1TpiuqfaQOr2eUv+fvzkWl2FVPNJR9s4lr4UsnP1POhHNVm2sASzQzeZFhRnRhbGBWOsgLeYJWupr6ZNrBEWGCnesLZaTmWDay9dB4TGc0nKGFQmmUD61R7f60vgQhAul+w1mcsqsK0gRUXbP1ysrkHfQwtqjG7zSHdL0gmDiyZvarO9bzKYibV1OWBN6X6BWOJ+1W4mvpn2sD6k8Q3uLHhIH429Cvp5TtEerHbHHta58rNItNMG1h7+Qa/2HMRlwff5BIIqgqfy4+3vveedFiJyhtWsr/WF2CUvQ6hTzanz6O7ORPiUh0yhN3mwHDXeQx2vrCnP8fR1Q7zBtZne/8mNzYcxHDXOZxq6+cuo6Qbu82Bwc5hPN85XNZs4Cp7tLLMG1gVFCldTg9efvYKznSdZ3BR2fQ6VSeZYpOzxsSBVfkwOje4bs6EMLY4yg55EtIOXJXdqE+EXfA7TBtYQLpYqccR4y6nBy/2XMSZ7vM8MJUK8rn86GsbqHg0VQgfkjtMHVgxnQJL09hwEH1t/ehr68f6xjI+XLiFyZVxFkUtyu30oKulF893Dut6n+XjAas7TB1Yq/ElXY4TL+T4kSfwYs9FvNhzkeFlIdpIqqMpWJVtX0S7OFiNqQNLpli5vrFc8Y2XG17xRBQTK2HMRaYwF5nicF5xbqcHgaYgAt4gult6dX3d205tIZaIlrz/WHrYzdSBJfPNfunGELpaenCu51VdbkaX04PBzheyvTbzkWnMRqawFl9igCkgN6A6JLfZLsfY4iiuhy/jsuC8TM4Q7mbqwJIJB98RP8YWRjG5Eq6oV6aYJ70ndr2Wrm8sYzV+B2vxpWyIUW3YbQ74jvgRaAqi2eVHwBs0fNeEscVRhCauZksHom2O2IO1m6kDa21D/M12P+IBIulwC01cxchMCH1t/YYVUo8feSL9CtC282vrG8uIJe5jNRNiscR9vgroLD+cfEf8hhbK8+UHlUZUjuCi591MHVgyIyy38+gX/szITCgdXO39ONU2YFjhXqOFWH7fzvrGMpIPNjEbmUIscR+xz6JY21jia2UJbqcHbudR+Fx+uJ1H0+Hk8tdkv6l4IooPF0cxtnCr4GSMzNrVclZsmJmpAwtI15BKBU6pm2ZsYRRjC6PZjuXulp6qPpW1p2+h688NMyBdr0s+2LREoPlcftgbHOl/2hzoyGwRZPSDRdbt1TA+XBgVniCe/7AshCOs3UwfWCKPS900UVwPX8L18KXstHa1wytfqTAD0jNQ2mvlanwpW7zVgg1IF3Tr5dVTGxkBmde3zJbBbqcn+z2ql0Aq5PZqGBMr45hcCUs/MNyPyOyDxRFWLtMH1mxkquSNvte9tNfiS7ge3wmvrpZedLf01t1RTI0NB7P/3bI/6Lkhl2+2zMmB5sxoKF+tXtP0sp3awsTKOOYiU3sKqVyiEZbMIatWY/rAEqnkh0ab6QtNXIXd5kBXS4/h0+FGyg25fPU8uqkWrUVlcmVcl5Gp6OxMs7/al8P0gTV3bwroOlfyMz6Xv+IbMPlgM1vzAnb38zS7WutuBEalaaPN2cgU5u5NGdJ+UmjkmavcUa2ZmT6wZBrvRDdOOWKJ6K4Aq/W0OpU2H5lOt5Vs7PTIGY1He+2d6QNL5sYLNAUNb+BMPtjMLtfR5IeY23mUIzGD5Y6ctH63Wk08iMoRc/c4wspn+sAC0jdpPRZ4C4UYgGwPkc/lzxatWUPam3giilgiitWcRtx6avmQOa2Jy3K+yBKBtSbYtaHDG0SoepcjpD318/t4tBGZNu1vb3CkA83msOTIbD4yDWCn1jN3b6quWjUqZZb/Dj1ZIrD+lLiPJ1E8sFQ5tl4bkQEo2pSoBVluL5MWbLmfqccRJ7DTEAukv29aH5LWP2aWQAo0lR5hcVuZwiwRWKLmOzONTnJ/mEWd1hpfkV4p0Q/VXhWqydTTa1o1iSZ6zBDKRrBIYImXN7idHst2FRf74eBOEsYR9WDJHARsRaY9SDWXzAJSmXVdRHoRLXy26sNTxBKBJb3NDFGViHrwuOi5MEsEVjnbzBAZhdvKlM8SgQWIF5KKagpEepF5OMq8FViRZQJLNMoyYnkOUSEyS3KsOHMqwzKBJVpIynVdVC2ivj+tIZa+yDKBJXpi1WsjJZkPyw/ls0xgSS2ClljfRVQpbitTPssEFheSUr0QLWRn/ao4ywSW7DYzRLXGZTnFWSawgPSWI6VwppCMxm1lKmOJtYSaWCJassOYxVCxgDeIvvb+Xds+a5viTayMY2xxlK80JcjsDMIRVnGWCizRNjMyHchW5XZ68Mrpnxasv2iHVzzpPYEz3edxLXwpuzU07SZqnxG9BVidpV4JRQtKucd6YT6XH299/7dSu542NhzEy89ewcunr1ThytTDRc+VsVRgyQy1Ocraze304PWhG3vuU+tr60dXS69BV6Uu0cG93FamNEsFFhdB790rp39adlPtuZ6LOl+N+jjCqoylAktmQzou0dnhc/krOvzC5fSgr71fxytSn6jswIJ7aZYKLBmq7O9eDX1tAxV/jW6+FmZx0XPlLBdYooWlbG3Yocf/Fyebe1gXzJDp8+O21KVZLrBETXlsHt0hCpr5yDRe++CC8OsMdp7R65KUxnJD5SwXWKuCGgEPLN0hej1OpjaRfCA+jmqw8wVcHnzT8iMtbitTOcsFlsxe2axjpYkKwCebe3Bp4A2pr3WyuQf/dfZjvHz6imVHGh2CZTlckiNmvcCS2Cvbd8SaP1D5jOgJ6mvrxy++9x5eH7rB7XzyiEb/ZMXA4ghLmpHLa570nsDPhn6F14duWKb1gdvKVM6CgSUxwrLoK0u+uciU8PCOSj3pPYGXn72Cd89+jL72ftM+LLjoWR+WCyxAfIKO1YvDuX7y/r9V5e9xOT3Z4BruPm+64JIpM/AsQjFLBpZo6C1a72Ula/ElqdYFvTQ2HMRw1zm8mynQm+XhIXNQL5fliFkysER7Zpvlh0QvYwujePXWWWynxC0MQHoEW+mrZGPDQfS19WdnFlUv0IvWqHJbGTmW2g9LIxphcZuZL5pcGce335hCX1s/TrUPZDfv08QTUdycCe3awE/b7K+vrbKiel9b+mvMR6bx4eItJffa4qJnfVgysGSKmz6Xn0XQPMkHmxiZCWFkJgRgZ7vfWOJ+wR+4ucgU5iJTCE1cxXD3+YqDK7tJYNf5L4RjvROVGdjSIMeSr4QyDXpcoiOmBZJodBBLRPHa+xfwD288jdDkNelXy2JcTg9e7LmId89+jBd7XlXiFV408/y4RI2LgC99+ZlDP6r1RVTbp9ufYLj7fMnPxDajXIiqs2RqC3ORKbw3+xs8/MtDPO48WtFs4IH9DWj1BDDYOQz3I0eRfLBVt69W//T0v5b8fe/hY2h2t2L67gQefp6q0lWpx5KBBQCn2gdK/rDMRaYZWAZ5+HkKc5EpjMyEENuMotnVWnEbg8/lR197P7q/8vd4+JdUXb3O+1x+PNfxHeHnvIeP4Vtf/S4efp7CnT/OVeHK1GPZwOpu6S35KrEP+zC2qF5xVzVr8SWMzISwtrGMw/bHKn69O9T4KLpaevH8iTM4sL8BscR9JCt8Ba2U9/Bx6W7+A/sbcOLYUzjVPoBkarOugrceWDawfK5WtHoCRX9/O7WF92Z/U8UrsrbIn+9ibHEUc5FpYF/lqw0O7G9AwBvEYOcwmt2t+DT5Sc1eF/vaB/bclmG3OdDV0otT7QNYiy/V7atutVk2sFo9gZI30aHGRxGavFbFKyIgXaCfXAljbHEUdpsDjz9yFAf2N1T0Nb2Hj6GvPd2OAQCRT+9WtU4UaAqW3UdmtzkyS5acuPPHOcvXtywbWHabA99ofbbkZ0b+8I7lb5BaSaa2MLkS1q1AD6S/5yeOPYVvffW78B4+hlgiik+3P9Hpios7032+4lfdVk8Az7Setvxoy7KBdajxMWFdYfruhKVvjnqQX6B//JG/xaHGRyv6mgf2N2QL4VqRPpaIGvZwev7EmYqvGdgZbWHfPstOCO37+o99f631RdTKx6+slvz91z64oGRXtdnp1UGfazu1hYmVcYwtjOoeBqL7rBzrG8t46caQMo2zerFk46hG1MDIMwrr01xkKtuIOjLzTsWNqMDO2sWfDf0K7579ON3bpUNDqszXKGdr5ONHnsC7Zz+23FZIln0lBIDgsadK3lDbqS18dOeDKl4R7UUytYXpu7/De7O/QeTTu7r0cwE7tS5thvHA/oay2wt8rlZh6eFfbgxhZCaEZlfrnkLywP4GPNN6GtN3f1eVWlw9sHRgBZqCJZ9Q/7v9CXuxFPDw81S2n0uvtgiN9/CxbF+X9/CxPXfTB5qC6BKczXg9fBnJ1Fa2raOjKSgdvFYLLUsHls/VWnK6+aDNgV///udVvCKqVG5bRDK1pcvsIrBTqNfaI9zOo/h0+3+EIdHV0lvyHlvfWN7V7xdLRNOLy/ftk26F0ELrozvv17xJ1miWrmGJdnhsbDhYpSshvcUSUYQmruLbbzyN1z64oOsRWi6nB4OdL+AX33svuwC72IhOdBhtsaJ5aOIqfvDL56T3FWtsOIjLg/8u9VmVWXqEZW9wCOsLc5FptjYobi2+hLHF0czr/T40PXq84mZUjd3mQKsngOc6vlNw5PWtju+WrEulXwMLz0p+uv0JPlr6AIfsj0m94h5qfNT0LQ+WDqxkagvf/bt/LvmZydUwIn++W6UrIiNpRfpf//7niG1GcdDm1HVrmkLhFTz+VMlwFC2yf/h5CpMrYcQ2o8JaGAA0u1rTzbYmbXi29CuhTA+L1aaNrWJsYRQv3RjK7tGl9xbF2mujqKwwd09uNDS2MCq1t35jw0F0tfRIfU0VWTqwAHEPDDfyM7fcWtert85WfVZ4L6c9jy2MYmTmHeHnuiVGYqqy9CshAHR/pRfew8eK/v7//eUhWxssIvLnu5hcCWPkD+8g8uldXZYBiTzX8R10NH0tvQFhalM46zh993fCvdwO2x8z7ey2Jfd0z7UaX8LJ5uJDaBW23yV9JR9sYmxhFGMLo3A7Pek+rM5hww4n0faqH+46ByA96p+NTKX3yv8simRqE7FEFL4jfthtDsQS0ZLXYubZbcsHFk/QoVK0vqiRmVC6D6ttAN0tPYbeF1qA0RdZvoYle4IO0Vp8CdfDl/DtN57GD375HEZm3uF5glVm+RGWzPHgLLxTvrX4Eq7HL+F6+FLVRl6y9GySrTcMLIknpM/lN3UzHlUmP7wC3mDBw2ar5cPFWzX5e6vB8q+EAITLH/RYi0bWoC3CvjZ+qSZ//3xk2tR7uDGwIC68d5S5HzdRNd1eDePirR/W+jIMZflXQiDd2lBqVoYjLDLCq7fOwufyo8Ob3uao3HaE26th3JwOWaJswcCCuNu4VrUIUpdoZnk+Mo3JlXFMrowjlPk1u80B3xE/3I94srvdNrv8X5j0WY0vZc8snItMWWqbZAYWMuu5Mk17xdhtDkvdGFSZcrbXTj7YTI+SIgZckEmwhgW59Vy+I+zFInmifbBmLfD6ZgQGFuSaR92P1L6/htQheiXkaL08DKwMnqBDerHbHMICermHWlgdAytDdANxETTJkikf7GVbGdrBwMr4k2CJzuMcYZEkmTYYjrDKw8DKEC3R4QJokiW6V7hgunwMrAzRE8/MewyRvkTlAx5qUj4GVobMrI3sOXFkbaLywSpfB8vGwMpY2+BNRPoQjbBYcC8fAytDaoTVxBEWiYn2xGLBvXwMrBw8QYcqJTM5w6bR8jGw9kC03IJI5qFmhV0VjMLAyiFa38XmURJh+4uxGFg5eIIOVUrUNGrm/dargYGVQ2oRNEOLShDtTssZwsowsHLInKDDRdBUimiExR6syjCwcsieoENUjGh3WpmHIhXHwMojWufF/d2pGJl7I/YZl+VUgoGVRzTKYmsDFSOzrQxHWJVhYOUR1RjYPErFyOxKy4XPlWFg5RHN4pQ6DoysTTQhIzqwl8QYWHnm7om7kFnHokKEi565JKdiDKwy8AQdKkS0rQxPyqkcAyuPzDovjrCoEJ6UYzwGVgGiE3TYi0WF8KQc4zGwCuAJOrRXUtvKcFlOxRhYBfAEHdormXYXjrAqx8AqQNQrwxEW5RPtRsuTcvTBwCpA9CTkNjO0V2wY1QcDqwCZ2RwW3imXaFsZ7tKgDwZWATIn6HCJDuUStbqw4K4PBlYBHGHRXom2lWHBXR8MrCKEJ+iweZQyZCZh2DSqDwZWEaIhvKhmQdYhswstT8rRBwOrCBZJSZbMtjKkDwZWEaIhPLeZIY1ohMWTcvTDwCpCpkjKOhYB4l1oOUOoHwZWETJb2XKbGQLELS4sL+iHgVWETGcyR1gEiFtcuI+7fhhYJYi2tGUvFgHibWV4Uo5+GFgliArvXARNAYn2Fo6w9MPAKkFUe+A2MyR1FiEXPuuGgVWCaHaHIywSlQV4Uo6+GFgliE7Q4TYzJJoh5JIcfTGwKsTCu7WJerDY0qAvBlYJUifocJsZSxOeRcimUV0xsAR4gg6VIioLyBzMS/IYWAKiJTpsHrUuTrpUHwNLgNvMUDHcVqb6GFgCLJpSMaJygKicQHvHwBLgNjNUjKgcwG2R9cfAEuBNR8VwW5nqY2AJyNx0MuvJyHy4rUz1MbAEuJEfFSMqB7DLXX8MLAmiY8bZi0WFsJygPwaWBNFqe1Etg8xHpgzAGpb+GFgSRLWIk809fC20GJlRNUdY+mNgSVjbuCP8zHDX+SpcCdUDu82BM92lv9/cVsYYDCwJkyth4WcGO19AX3t/Fa6Gasluc+DywJvCbZFnuYbQEAwsCckHm7i9Kg6tl5+9gmHBk5fUZbc58PrQDalm4bHFW1W4IuthYEm6OR2S+txw1zm89f3fsjfLZAY7h/Hu2Y9x/MgTws/OR6ZZvzLIl778zKEf1foiVBBLRNHsboX38DHhZw81Poq+9n50NH0NsUSUe3orrK+9H5cH3sQ3Wp/Fgf0NUn/mtfcv8HtukH1f/7Hvr7W+CFXYbQ68e/ZjYf0i33xkGjdnQphcGTfoykhPbqcHg51ncKq9f8/f65GZd3A9fMmgKyMG1h4FvEH8bOhXZf3ZeCKaDS4+geuL2+lBV0svTrUPSL32FbK+sYzvv/VNna+McjGwytDX3o+Xn71S0de4vRrGxMo4JlfCXMJRI3qElGZ9Yxkv3Rji99JgDKwyBbxBXB4UT2/LmI9MY2JlHHORKRZrDRbwBtHV0ouOpmDFIaVhWFUPA6sCbqcHr5z+qa57Ym2ntjAXmcLsvXR4ccfKygS8QQSagujwBg3Zu2xscRTXw5cZVlXCwNLBYOcwznSf12W0Vch8ZBqr8SXEEvcZYiUEvEH4XH74XH40u1p1G0EVsp3awk/ev8CJlCpjYOnEbnNgsHMYw13nqvL3xTPtErORKSQfbGItE2hmL+bbbQ74jqRDyW5zoMMbhNvpqeqhthxV1Q4DS2eVTInrZX1jGckHm1iNLyGZ2kwH2WdRJFObdV8jczs9cDuPpoMps8C4wxuE3eYwdMQkY2xxFKGJq6Z/KNQzBpZBtBHXqbb+ujzSXgs1APhT3shsLb5UdPQgeh0t1uGfG0BAerdObVueegijYrZTW/hwYRQjM28zqOoAA6sK0lPn/TjZ3FPrSyFJWtvJ2MJorS+FcjCwqshuc6CrpQfdLb0Mrzqjzc6yN66+MbBqRAuvgDeI7pbemtW7rGw+Mo3ZyBTm7k1x5lURDKw64XP5EfAG0dEUhO+Ivy7rXiqLJ6JY21hif5viGFh1yu30wOdqhc/lR0emv4ijMDnrG8tYjd/BWnwp/b+N4pMIpBYGlkIK9SDV8wyb0dY3lhFL3MdqJpi0xloyLwaWSRTrXwKg7OhsO7WVbrFIZXrKLNQgS4UxsCxG65PK74vqyOufMiLk4nmbGeb2f2lhBICBREUxsKhs2qgOYMhQdeyv9QWQurj9M1UbD6EgImUwsIhIGQwsIlIGA4uIlMHAIiJlMLCISBkMLCJSBgOLiJTBwCIiZTCwiEgZDCwiUgYDi4iUwcAiImUwsIhIGQwsIlIGA4uIlMHAIiJlMLCISBkMLCJSBgOLiJTBwCIiZTCwiEgZDCwiUgYDi4iUwcAiImUwsIhIGQwsIlIGA4uIlMHAIiJlMLCISBkMLCJSBgOLiJTBwCIiZTCwiEgZDCwiUgYDi4iUwcAiImUwsIhIGQwsIlIGA4uIlMHAIiJlMLCISBkMLCJSBgOLiJTBwCIiZTCwiEgZDCwiUgYDi4iU8f9Uw9RVEql2JAAAAABJRU5ErkJggg==;" vertex="1" parent="1">
          <mxGeometry x="1194" y="364.18" width="131.68" height="131.68" as="geometry" />
        </mxCell>
        <mxCell id="bTx97Rhf-hIdxPFHmtMt-8" value="&lt;font style=&quot;font-size: 24px;&quot;&gt;&lt;b&gt;2. 카페 이름 반환&amp;nbsp;&lt;/b&gt;&lt;/font&gt;" style="rounded=0;whiteSpace=wrap;html=1;fillColor=none;strokeColor=none;" vertex="1" parent="1">
          <mxGeometry x="-293" y="656.6800000000001" width="477" height="53" as="geometry" />
        </mxCell>
        <mxCell id="bTx97Rhf-hIdxPFHmtMt-9" value="" style="endArrow=classic;html=1;rounded=0;" edge="1" parent="1">
          <mxGeometry width="50" height="50" relative="1" as="geometry">
            <mxPoint x="217.5" y="709.6800000000001" as="sourcePoint" />
            <mxPoint x="-297.79999999999995" y="709.6800000000001" as="targetPoint" />
          </mxGeometry>
        </mxCell>
        <mxCell id="bTx97Rhf-hIdxPFHmtMt-10" value="" style="shape=image;html=1;verticalLabelPosition=bottom;verticalAlign=top;imageAspect=1;aspect=fixed;image=data:image/png,iVBORw0KGgoAAAANSUhEUgAAAOEAAADhCAMAAAAJbSJIAAAABGdBTUEAALGPC/xhBQAAACBjSFJNAAB6JgAAgIQAAPoAAACA6AAAdTAAAOpgAAA6mAAAF3CculE8AAABklBMVEX////08PL65+bzysfwvLnspqHokYrqnZjutLDke3PeU0fbQTLaNiXaOyvlg3z22NXhamDgSz7cSj3fX1XAQDaxOzOgNS+bMy5+KSfPRTqNLiuBKij76JzfXDD+/PL53WL41jTaPjz99dX72UHzwUT87LD42Eb520bxuUT65Y7vrkP64XvtpULbQz3zw2T5323pkkH42lP82j/30UX8773eVD3ibz/630f++ujmgEDLRlnjRSg/jPSxuqD/3DV1e8g7i/Yyh/S7vZGdap0uiPpWl/PTyHbgRzPGVmJVheIth/vUx3/niEGBdrymtbG0X3/kzmiLqMF3oNDJwoxaleLcy25pm9jPUFJrftG6XHastKurZIyZdqaWrLXH0M2Gp8fGy7fn3aRmn/N4qPKKsfGQtfGkwPCow/Czye/A0u/BlazU3e3s7Ozx7+zl8+vevLa/2cuy08CWyKyNyqd8wplVsoFRsH4go2ILoFviRTvAXUUAp2QAnlcAnFPLVUGReVBXklttileicEx5hVVAmF2PeVAnLJU1AAAAAWJLR0QAiAUdSAAAAAd0SU1FB+QBDg0hDBFPZywAAAyLSURBVHja7Zz7W9NYHsYLCCilSioCIgOFjOl4WySiMEuoKbYgdWUUGWd2Z92ZAURYmG4pbVOG1hnH2f97T5ImTZrLOSc5uXSfvL/4SC85n77f20nSxmKRIkWKFClSpEiRImnU09t3qX9A1GD/5b7enqDXQ1Z9/VeG4sOJRFxRYjg+dPXytaDXRUa9/SPDiTiV7BQVjw/Hr1wKenmuden6sAmdqngicbWbnewdjCds8FqQw0PdamTv1eE4DE+O1wTVlYyDCTQ+SYmhvqDXi6s+CoNP9HF4pDfoNWNpYBiLT47V/qBXja7e63gGKqE60i1jQB+8gJorHu+OznEZP0JVDV8OevUIGnQBCBAHg14/VAMJN4AgGQeCJoDInYMS4tWgGWzlJge7wsU+AoChzsVeIoAAMbRj6pDDPmhEDOkEd9XRJGMmKhk0i6kuEYpRUfEwFtQeYg5KcRrC3dQVooRJKmgeg8g0Ck2chq4rXidVR9U4DVk9veRyHDUJ05GgmfQizSeaGKrNInkLw2YisWlGZ2KIMrEP0UKqJbRnh6mcjqCsGYCN3hgbHx+7MZpEY0wEzaUKZU9BUaPjE6rGR1GMTIRmjzEIH2eom5MTE7dUTUxMjsIRw1NrEBwc0/LJkGNwxERITqBeg9eZyU4+EXGya8IUGqSUGSBAvAUjDMsmaggGOG4KKLoIC9R40GySeiFBSt2wAETIxXA0fejEZgkIEG92QyIO2KchKKM2hOP2JsbDcGJx6gvnFkJNpK4EjRebnknNOs1ChEykrgcNOEfTX0IIJ20Jb92C1JqAAW+nmPRX9oRJCCAkTAOeau6kGCZ9157wJoxw1PblwbaLewCQSd9/YBukozDCG7ZhOvuXAAHnaUYkfGhLmHRL+NXCdFCAMxIgjBDuoX0xnb3LBoXYAvTcw7tpmgkEUQGE5iG00sCiNM3QQbg4rwDCCBG6BZQQIPoOeE8FhPZDahJCaP/5zD4SD0LP+Aw4lWLahLCZBjK1QUbvBxIhw97zFXBRAwgEmWnsExHS8JOP0/JBUlM+As7pAdOP7dcIGUwhFj5Zah0mtegb4DSj19IT+1JjW00nIOcUHzxUCJnUsl+EM7SeENYQ7bbA0BM1oB2qB/KroN5OdXgI3VwkkzatAvJKuZTKYu/4ArjcCQgE8dA6TmExCgrNkuY4/qTighEQlogS4oQjQE0aSog+zDZTrJEwfR8apuJVCwPfrZvQ0/qzX6a1R6K974pmMcowj6CEUuPXMU5MjCFcYtMFqS9x2llHUcNUsnFMvKzWwpsYhxtoCFJRHgMumlqIUk0lxuTo2KQYnZNjiJdItZXUn3pq6qBo4mOU9UoXueV/0J7eHmg0cepp35+yIkSoNU7UUWe8LzbTKcZSXgAmTSwEJs55R3iHtgRc8sJEafNrNHE+EAuZNHnAB6YWemniFG1HSN5Esyz01ERbC9HLKbqFXy9ZHMqrcnqbtSVE7IkYhI+sDkV71BMZiJa+RhhsMGL0/pLlobwZwOdSMMRHRB38whqQYW97QXiPhhHCLkLhWWhRZmR5sdufhlpINE7tYpTxpmFA6kxLxGL0iS2gJ7VmBgWQXD2FHYkmDriMEKRinD4kgmg+rnkbpmhBirgXhgI+XIIdh3yYzkMrqSL3ow31BArIkN/rowUpA79OgwD41xlYjDLkJzd4u2/HqduuuMKtZtJQRtJNfwo5SF1Xm5WnfHZtYSEDSXzSGwykXqEiuqk2K894jstls/l1CCJLlhDDQlHOATeeA0BRfA5yTLKJiJGGDEsvOG/8VHyTa6mwbo9INhFRuyFDZ9hV7gW99DeHcbryklcJX9gTku2Id9CilM4sbGVz4ocPuyxsFaPfqIBQQobovQtIhYbOvHqdzcnh5awrUkmOQyckOpoipCGbWd8uZNUEctQyVp7iEJIsNfC9IZt5syPzKSXCwYkpbYyiEBIcviEbi3SKXc0XeH0RxI9TXYwiELIEL7Qt2hGK5YXLaT79VpnHrqeaOopGSPAGG5tmQWdmQHnRL01pZHiE8ec8nock28WUFSGb+XZbST8DIeaJqZVNzoqQzWil/JnkRSiLdshmXrw18Gk8xJpPN57xVoTs1luNdl4pfyfYEC1OJK5pyosZIU6xoYYMb6MQZkCY8G0VVEKCpxRNN/jsG1M+7UCJcXaxo8xoCemC/u8qIcFtvgVhjoMQMo9QCanvDJ+WQki/siIkuH+aZxwSLsHueFMt/N5IuJ5hgVKZ7awFYYoc4YxTD1F3iht/NwZ89vU/JO10HMYbQqceol437ewUMmJOkiE/vSB0HKWI4+nGD+Y1y/ztPSF0HqVIbX9jEx1QQ0hw+3TPOSGKiVgWetMt3BAimLiCYyHnScefckEINxHPwjYhyTOmpnsLVEJoOcWzUENIcPLGJPw2o5f9F6H1O3scQoK7J9PTpZaE/E6H/rlB0MI2IckTpstYhBzfKTtCs3EGQphiJWVI3i6MR2ggfmaDaDKR2iu3utYSycvA7gi5TWtCk00FFFFWgSN54UIcauhUSyw2If+NJeLKS1xA9U23CQKKDTGz/q6lVYbGJfx+xcrCJOp7GJR9TZJwMcWuFXJZWYU8rocc/53Fjd2GszPoyv2LJOFyKpPXXDNZY3EJX1qYiNsqNCqQvd8kzWo/va0UJiHHmf++Sxy3VWg+tB2ytyrMr2tw+LcZmklnXmcx1vODaa1ZeeqYMPsjUcDYbU67lNzrBZbZwrHQvNYYTyGiK/cTWcK5Td2Hnc3meRxAi1qDuavQe0j6C1CdIYm7NNO5xkWd4XdI39j2E55lRm0aw9TBPKMq944wYGzRJSDHPzeEqYtmyBV+Jk24/CNG5TQlfLkR6iAFYVpwthSeb41C2U5C6nlOvOLi6G1zW8QBY4ubyGtRoMDq87t7++8PDj4cHh0ddf6g+ca/D97v7+3mwQvU5yMTEg/SWGx6CxqmElkuC6jeHxweHR+f/KLT5Q7C4V7lkZPj46NDgLsLehASaXbbi68+/WxTTSUTuN39g8M214lB+t8epEa0j7VhDw/2d6U3tOEsrHkAGJvbzlrA5bjd94cK2Ym19L81HO83fZIK+n4vn7Pwk8978o2S2JuCEY7P7384OoGhtdSvC9PENdsnK5y7nNHN3Ko3X8tf3OG1cIX83gfZODibrGu6n1MeQnhFC3NfclOThl79kMtaQaHjdg+OsOBkaX/VPD6A/DLxQMcHe1yuRZl759WXnafyUrXcPZCsw4OTpP0V0EQf1kslMz/siYnB8959Yf1NoeUd4rJ62hL/W/yPhjDe0/EoGubxwW5hy7vvq88h0SlrLpVOy+WzSqVaqwlA9XpdOG/3il8vBKFWq1bOyuXTUknzMijliYff5Y7B0U6KgAtACY1mo9GoixJUXXxUE/H8t4sWdr0OnthsCIAWsBYRSD0EjP1izSainVWFuswlmOriN9XE898Nj8qsdQGQtkAtXPSSMGbG1lMslSs1oWlNpupTm/DC+lmAtFmvVcunRVNMTwH1JoqHLwHfRNcENJ1r09BeoqP12tmpaKd/FrZNBHTAOREOkU2fiK00hAtgCtVy6aRtpseAEqJoXbmK4Vyb8I9zyzS0d7MmUYKDFz0nLAK6Wt0BnUT4WSHEfmldDNmSDxbGYrWmIzhZf8qE1EfEIO2kbPgAGCs2nQMKF/KdfOd/OCIUmiU/CGOnLhAvfpVKzflnZx5WfAGMxarOw7RVarAKjUY+AcZiLjyUSw1+oRHV9L6OKnKRir9LhDedBKlPSSjLRSoiTjQmgGc+AsZiZaeIFx9xJhqNGn5VGUWVhkNCsZg6KKX1ms+AANFZQZWKKX4pDQDQac+Qiil2Ka371yd0iI4CVSymuKU0IECnLp5jT6WBATosN9jNIpAcVBHxmwbYBOPN3Y1qgIBO+iJoF1jtsOl3H+xUCTdQL/57fv4JA7AcMCCYUQXcevP5E7KF9XopaD5RuMmIHqKNmn+7CVu52RLbRqi/s7adijWHU6pthAqloLm0KuOdN0UxMOga2qlilWioNoSQZKBWp9hF1TpA68H3CFOV3ZxJ1fCFLkA1OnOfjoAvhAHaVvGs4aqshp1PUllwHKyN+ln4+USVqk6MrDdrp0GvHF3FMub1m3pT6BL7dJCIl0/Fi6Bdh9eCLFWkq/s2cPVGU6icdieeolK5Kt15oruNQbrtotkQqmddTqdKvBOlUqmBatkEXEKtUjk7LRX/T+AiRYoUKVKkSJEiRYoUKVKkSJEiRYoUKVKkSJEiRYoUKVKkSOj6H9HEPV4tfdwdAAAAJXRFWHRkYXRlOmNyZWF0ZQAyMDIwLTAxLTE0VDEzOjMzOjEyKzAwOjAwgcwgYwAAACV0RVh0ZGF0ZTptb2RpZnkAMjAyMC0wMS0xNFQxMzozMzoxMiswMDowMPCRmN8AAAAASUVORK5CYII=;" vertex="1" parent="1">
          <mxGeometry x="672" y="369.68" width="130" height="130" as="geometry" />
        </mxCell>
        <mxCell id="bTx97Rhf-hIdxPFHmtMt-11" value="" style="endArrow=none;html=1;rounded=0;" edge="1" parent="1">
          <mxGeometry width="50" height="50" relative="1" as="geometry">
            <mxPoint x="217.61" y="1965.18" as="sourcePoint" />
            <mxPoint x="217.30058340929816" y="559.68" as="targetPoint" />
          </mxGeometry>
        </mxCell>
        <mxCell id="bTx97Rhf-hIdxPFHmtMt-12" value="" style="outlineConnect=0;dashed=0;verticalLabelPosition=bottom;verticalAlign=top;align=center;html=1;shape=mxgraph.aws3.ec2;fillColor=#F58534;gradientColor=none;aspect=fixed;" vertex="1" parent="1">
          <mxGeometry x="-354.77" y="358" width="113.55" height="138.04" as="geometry" />
        </mxCell>
        <mxCell id="bTx97Rhf-hIdxPFHmtMt-13" value="" style="endArrow=none;html=1;rounded=0;" edge="1" parent="1">
          <mxGeometry width="50" height="50" relative="1" as="geometry">
            <mxPoint x="1255.5" y="1964.68" as="sourcePoint" />
            <mxPoint x="1256.1905834092981" y="559.18" as="targetPoint" />
          </mxGeometry>
        </mxCell>
        <mxCell id="bTx97Rhf-hIdxPFHmtMt-14" value="" style="outlineConnect=0;dashed=0;verticalLabelPosition=bottom;verticalAlign=top;align=center;html=1;shape=mxgraph.aws3.rds;fillColor=#2E73B8;gradientColor=none;aspect=fixed;" vertex="1" parent="1">
          <mxGeometry x="145.5" y="358" width="132" height="148.5" as="geometry" />
        </mxCell>
        <mxCell id="bTx97Rhf-hIdxPFHmtMt-15" value="&lt;span style=&quot;font-size: 36px;&quot;&gt;RDS&lt;/span&gt;" style="rounded=0;whiteSpace=wrap;html=1;fillColor=none;strokeColor=none;" vertex="1" parent="1">
          <mxGeometry x="157.5" y="499.68" width="120" height="60" as="geometry" />
        </mxCell>
        <mxCell id="bTx97Rhf-hIdxPFHmtMt-16" value="&lt;font style=&quot;font-size: 24px;&quot;&gt;&lt;b&gt;3. 장소 정보 요청(findPlaceFromText)&lt;/b&gt;&lt;/font&gt;" style="rounded=0;whiteSpace=wrap;html=1;fillColor=none;strokeColor=none;" vertex="1" parent="1">
          <mxGeometry x="-264.5" y="756.6800000000001" width="460" height="53" as="geometry" />
        </mxCell>
        <mxCell id="bTx97Rhf-hIdxPFHmtMt-17" value="" style="endArrow=classic;html=1;rounded=0;" edge="1" parent="1">
          <mxGeometry width="50" height="50" relative="1" as="geometry">
            <mxPoint x="-300.5" y="809.6800000000001" as="sourcePoint" />
            <mxPoint x="735.5" y="809.6800000000001" as="targetPoint" />
          </mxGeometry>
        </mxCell>
        <mxCell id="bTx97Rhf-hIdxPFHmtMt-18" value="&lt;font style=&quot;font-size: 24px;&quot;&gt;&lt;b&gt;4. 장소 정보 반환&lt;/b&gt;&lt;/font&gt;" style="rounded=0;whiteSpace=wrap;html=1;fillColor=none;strokeColor=none;" vertex="1" parent="1">
          <mxGeometry x="-284.5" y="857.6800000000001" width="460" height="53" as="geometry" />
        </mxCell>
        <mxCell id="bTx97Rhf-hIdxPFHmtMt-19" value="" style="endArrow=classic;html=1;rounded=0;" edge="1" parent="1">
          <mxGeometry width="50" height="50" relative="1" as="geometry">
            <mxPoint x="736.5" y="909.6800000000001" as="sourcePoint" />
            <mxPoint x="-299.5" y="909.6800000000001" as="targetPoint" />
          </mxGeometry>
        </mxCell>
        <mxCell id="bTx97Rhf-hIdxPFHmtMt-20" value="&lt;font style=&quot;font-size: 24px;&quot;&gt;&lt;b&gt;&lt;font style=&quot;font-size: 24px;&quot;&gt;5. 장소 세부정보 요청(&lt;/font&gt;placeDetails)&lt;/b&gt;&lt;/font&gt;" style="rounded=0;whiteSpace=wrap;html=1;fillColor=none;strokeColor=none;" vertex="1" parent="1">
          <mxGeometry x="-264.5" y="955.6800000000001" width="460" height="53" as="geometry" />
        </mxCell>
        <mxCell id="bTx97Rhf-hIdxPFHmtMt-21" value="" style="endArrow=classic;html=1;rounded=0;" edge="1" parent="1">
          <mxGeometry width="50" height="50" relative="1" as="geometry">
            <mxPoint x="-299.5" y="1009.6800000000001" as="sourcePoint" />
            <mxPoint x="736.5" y="1009.6800000000001" as="targetPoint" />
          </mxGeometry>
        </mxCell>
        <mxCell id="bTx97Rhf-hIdxPFHmtMt-22" value="&lt;font style=&quot;font-size: 24px;&quot;&gt;&lt;b&gt;&lt;font style=&quot;font-size: 24px;&quot;&gt;6. 장소 세부정보 반환&lt;/font&gt;&lt;/b&gt;&lt;/font&gt;" style="rounded=0;whiteSpace=wrap;html=1;fillColor=none;strokeColor=none;" vertex="1" parent="1">
          <mxGeometry x="245.5" y="1056.68" width="460" height="53" as="geometry" />
        </mxCell>
        <mxCell id="bTx97Rhf-hIdxPFHmtMt-23" value="" style="endArrow=classic;html=1;rounded=0;" edge="1" parent="1">
          <mxGeometry width="50" height="50" relative="1" as="geometry">
            <mxPoint x="-300.5" y="1109.68" as="sourcePoint" />
            <mxPoint x="735.5" y="1109.68" as="targetPoint" />
          </mxGeometry>
        </mxCell>
        <mxCell id="bTx97Rhf-hIdxPFHmtMt-24" value="" style="endArrow=classic;html=1;rounded=0;" edge="1" parent="1">
          <mxGeometry width="50" height="50" relative="1" as="geometry">
            <mxPoint x="-300.5" y="1209.68" as="sourcePoint" />
            <mxPoint x="1255.5" y="1209.68" as="targetPoint" />
          </mxGeometry>
        </mxCell>
        <mxCell id="bTx97Rhf-hIdxPFHmtMt-25" value="" style="endArrow=classic;html=1;rounded=0;" edge="1" parent="1">
          <mxGeometry width="50" height="50" relative="1" as="geometry">
            <mxPoint x="1255.5" y="1309.68" as="sourcePoint" />
            <mxPoint x="-304.5" y="1309.68" as="targetPoint" />
          </mxGeometry>
        </mxCell>
        <mxCell id="bTx97Rhf-hIdxPFHmtMt-26" value="&lt;font style=&quot;font-size: 24px;&quot;&gt;&lt;b&gt;&lt;font style=&quot;font-size: 24px;&quot;&gt;7. S3 사진 여부 확인&lt;/font&gt;&lt;/b&gt;&lt;/font&gt;" style="rounded=0;whiteSpace=wrap;html=1;fillColor=none;strokeColor=none;" vertex="1" parent="1">
          <mxGeometry x="-254.5" y="1156.68" width="460" height="53" as="geometry" />
        </mxCell>
        <mxCell id="bTx97Rhf-hIdxPFHmtMt-27" value="&lt;font style=&quot;font-size: 24px;&quot;&gt;&lt;b&gt;&lt;font style=&quot;font-size: 24px;&quot;&gt;8. S3 사진 여부 응답&lt;/font&gt;&lt;/b&gt;&lt;/font&gt;" style="rounded=0;whiteSpace=wrap;html=1;fillColor=none;strokeColor=none;" vertex="1" parent="1">
          <mxGeometry x="765.5" y="1256.68" width="460" height="53" as="geometry" />
        </mxCell>
        <mxCell id="bTx97Rhf-hIdxPFHmtMt-28" value="" style="endArrow=classic;html=1;rounded=0;" edge="1" parent="1">
          <mxGeometry width="50" height="50" relative="1" as="geometry">
            <mxPoint x="-300" y="1409.68" as="sourcePoint" />
            <mxPoint x="736" y="1409.68" as="targetPoint" />
          </mxGeometry>
        </mxCell>
        <mxCell id="bTx97Rhf-hIdxPFHmtMt-29" value="" style="endArrow=classic;html=1;rounded=0;" edge="1" parent="1">
          <mxGeometry width="50" height="50" relative="1" as="geometry">
            <mxPoint x="735" y="1509.68" as="sourcePoint" />
            <mxPoint x="-301" y="1509.68" as="targetPoint" />
          </mxGeometry>
        </mxCell>
        <mxCell id="bTx97Rhf-hIdxPFHmtMt-30" value="&lt;font style=&quot;font-size: 24px;&quot;&gt;&lt;b&gt;&lt;font style=&quot;font-size: 24px;&quot;&gt;9. 사진 요청&amp;nbsp;&lt;/font&gt;&lt;/b&gt;&lt;/font&gt;" style="rounded=0;whiteSpace=wrap;html=1;fillColor=none;strokeColor=none;" vertex="1" parent="1">
          <mxGeometry x="-254.5" y="1356.68" width="460" height="53" as="geometry" />
        </mxCell>
        <mxCell id="bTx97Rhf-hIdxPFHmtMt-31" value="&lt;font style=&quot;font-size: 24px;&quot;&gt;&lt;b&gt;&lt;font style=&quot;font-size: 24px;&quot;&gt;10. 사진 응답&lt;/font&gt;&lt;/b&gt;&lt;/font&gt;" style="rounded=0;whiteSpace=wrap;html=1;fillColor=none;strokeColor=none;" vertex="1" parent="1">
          <mxGeometry x="245.5" y="1456.68" width="460" height="53" as="geometry" />
        </mxCell>
        <mxCell id="bTx97Rhf-hIdxPFHmtMt-32" value="" style="endArrow=classic;html=1;rounded=0;" edge="1" parent="1">
          <mxGeometry width="50" height="50" relative="1" as="geometry">
            <mxPoint x="-302.5" y="1609.68" as="sourcePoint" />
            <mxPoint x="1253.5" y="1609.68" as="targetPoint" />
          </mxGeometry>
        </mxCell>
        <mxCell id="bTx97Rhf-hIdxPFHmtMt-33" value="" style="endArrow=classic;html=1;rounded=0;" edge="1" parent="1">
          <mxGeometry width="50" height="50" relative="1" as="geometry">
            <mxPoint x="-303.5" y="1709.68" as="sourcePoint" />
            <mxPoint x="217.3" y="1709.68" as="targetPoint" />
          </mxGeometry>
        </mxCell>
        <mxCell id="bTx97Rhf-hIdxPFHmtMt-34" value="&lt;font style=&quot;font-size: 24px;&quot;&gt;&lt;b&gt;&lt;font style=&quot;font-size: 24px;&quot;&gt;11. S3 사진 저장&lt;/font&gt;&lt;/b&gt;&lt;/font&gt;" style="rounded=0;whiteSpace=wrap;html=1;fillColor=none;strokeColor=none;" vertex="1" parent="1">
          <mxGeometry x="-284.5" y="1554.68" width="460" height="53" as="geometry" />
        </mxCell>
        <mxCell id="bTx97Rhf-hIdxPFHmtMt-35" value="&lt;font style=&quot;font-size: 24px;&quot;&gt;&lt;b&gt;&lt;font style=&quot;font-size: 24px;&quot;&gt;12. 이미지 URL 저장&lt;/font&gt;&lt;/b&gt;&lt;/font&gt;" style="rounded=0;whiteSpace=wrap;html=1;fillColor=none;strokeColor=none;" vertex="1" parent="1">
          <mxGeometry x="-284.5" y="1656.68" width="460" height="53" as="geometry" />
        </mxCell>
      </root>
    </mxGraphModel>
  </diagram>
</mxfile>
